<svg width="101" height="36" viewBox="0 0 101 36" fill="none" xmlns="http://www.w3.org/2000/svg">
<path d="M35.9985 14.6859C35.4952 14.6859 35.0422 14.5996 34.6395 14.427C34.2369 14.2472 33.9205 13.9956 33.6904 13.672C33.4603 13.3484 33.3452 12.9709 33.3452 12.5395H34.6611C34.6899 12.863 34.8157 13.1291 35.0386 13.3376C35.2687 13.5461 35.5887 13.6504 35.9985 13.6504C36.4228 13.6504 36.7535 13.5497 36.9908 13.3484C37.2281 13.1399 37.3468 12.8738 37.3468 12.5503C37.3468 12.2986 37.2713 12.0937 37.1203 11.9355C36.9765 11.7773 36.7931 11.655 36.5702 11.5687C36.3545 11.4825 36.0525 11.389 35.6642 11.2883C35.1752 11.1589 34.7761 11.0295 34.4669 10.9C34.1649 10.7634 33.9061 10.5549 33.6904 10.2744C33.4747 9.99401 33.3668 9.6201 33.3668 9.15272C33.3668 8.72128 33.4747 8.34378 33.6904 8.0202C33.9061 7.69663 34.2081 7.44855 34.5964 7.27598C34.9847 7.10341 35.4341 7.01712 35.9446 7.01712C36.6709 7.01712 37.2641 7.20048 37.7243 7.5672C38.1917 7.92672 38.4505 8.42287 38.5009 9.05564H37.1418C37.1203 8.7824 36.9908 8.54871 36.7535 8.35456C36.5163 8.16042 36.2035 8.06334 35.8152 8.06334C35.4628 8.06334 35.1752 8.15323 34.9523 8.33299C34.7294 8.51276 34.618 8.77162 34.618 9.10957C34.618 9.33967 34.6863 9.53022 34.8229 9.68122C34.9667 9.82503 35.1465 9.94008 35.3622 10.0264C35.5779 10.1127 35.8727 10.2061 36.2466 10.3068C36.7428 10.4434 37.1454 10.58 37.4546 10.7167C37.771 10.8533 38.0371 11.0654 38.2528 11.353C38.4757 11.6335 38.5871 12.011 38.5871 12.4855C38.5871 12.8666 38.4829 13.2262 38.2744 13.5641C38.073 13.9021 37.7746 14.1753 37.3791 14.3838C36.9908 14.5852 36.5306 14.6859 35.9985 14.6859ZM41.2676 7.11419V14.6104H40.038V7.11419H41.2676ZM47.7248 7.11419V8.11727H45.7294V14.6104H44.4998V8.11727H42.4936V7.11419H47.7248ZM50.1996 8.10649V10.3068H52.7882V11.3099H50.1996V13.6073H53.1118V14.6104H48.97V7.10341H53.1118V8.10649H50.1996ZM59.898 14.6859C59.3947 14.6859 58.9417 14.5996 58.539 14.427C58.1363 14.2472 57.82 13.9956 57.5899 13.672C57.3598 13.3484 57.2447 12.9709 57.2447 12.5395H58.5606C58.5893 12.863 58.7152 13.1291 58.9381 13.3376C59.1682 13.5461 59.4882 13.6504 59.898 13.6504C60.3223 13.6504 60.653 13.5497 60.8903 13.3484C61.1276 13.1399 61.2463 12.8738 61.2463 12.5503C61.2463 12.2986 61.1708 12.0937 61.0198 11.9355C60.8759 11.7773 60.6926 11.655 60.4697 11.5687C60.254 11.4825 59.952 11.389 59.5637 11.2883C59.0747 11.1589 58.6756 11.0295 58.3664 10.9C58.0644 10.7634 57.8056 10.5549 57.5899 10.2744C57.3741 9.99401 57.2663 9.6201 57.2663 9.15272C57.2663 8.72128 57.3741 8.34378 57.5899 8.0202C57.8056 7.69663 58.1076 7.44855 58.4959 7.27598C58.8842 7.10341 59.3336 7.01712 59.8441 7.01712C60.5703 7.01712 61.1636 7.20048 61.6238 7.5672C62.0911 7.92672 62.35 8.42287 62.4003 9.05564H61.0413C61.0198 8.7824 60.8903 8.54871 60.653 8.35456C60.4157 8.16042 60.103 8.06334 59.7147 8.06334C59.3623 8.06334 59.0747 8.15323 58.8518 8.33299C58.6289 8.51276 58.5174 8.77162 58.5174 9.10957C58.5174 9.33967 58.5857 9.53022 58.7224 9.68122C58.8662 9.82503 59.0459 9.94008 59.2617 10.0264C59.4774 10.1127 59.7722 10.2061 60.1461 10.3068C60.6423 10.4434 61.0449 10.58 61.3541 10.7167C61.6705 10.8533 61.9366 11.0654 62.1523 11.353C62.3752 11.6335 62.4866 12.011 62.4866 12.4855C62.4866 12.8666 62.3824 13.2262 62.1738 13.5641C61.9725 13.9021 61.6741 14.1753 61.2786 14.3838C60.8903 14.5852 60.4301 14.6859 59.898 14.6859ZM65.1671 8.10649V10.3068H67.7557V11.3099H65.1671V13.6073H68.0793V14.6104H63.9375V7.10341H68.0793V8.10649H65.1671ZM75.019 9.27136C74.8249 8.89745 74.5552 8.61702 74.2101 8.43006C73.8649 8.23592 73.4659 8.13885 73.0129 8.13885C72.5167 8.13885 72.0745 8.2503 71.6862 8.47321C71.2979 8.69611 70.9923 9.0125 70.7694 9.42236C70.5537 9.83222 70.4458 10.3068 70.4458 10.8461C70.4458 11.3854 70.5537 11.8636 70.7694 12.2806C70.9923 12.6905 71.2979 13.0069 71.6862 13.2298C72.0745 13.4527 72.5167 13.5641 73.0129 13.5641C73.6816 13.5641 74.2245 13.3772 74.6415 13.0033C75.0586 12.6294 75.3138 12.1224 75.4073 11.4825H72.5922V10.5009H76.7232V11.4609C76.6441 12.0433 76.4356 12.579 76.0976 13.068C75.7668 13.5569 75.3318 13.9488 74.7925 14.2436C74.2604 14.5313 73.6672 14.6751 73.0129 14.6751C72.3082 14.6751 71.6646 14.5133 71.0822 14.1897C70.4998 13.8589 70.036 13.4023 69.6908 12.8199C69.3529 12.2375 69.1839 11.5795 69.1839 10.8461C69.1839 10.1127 69.3529 9.45472 69.6908 8.87228C70.036 8.28985 70.4998 7.83684 71.0822 7.51327C71.6718 7.1825 72.3154 7.01712 73.0129 7.01712C73.811 7.01712 74.5193 7.21486 75.1377 7.61034C75.7632 7.99863 76.2162 8.5523 76.4967 9.27136H75.019ZM79.1547 7.11419V11.8923C79.1547 12.4604 79.3021 12.8882 79.5969 13.1758C79.8989 13.4635 80.316 13.6073 80.8481 13.6073C81.3874 13.6073 81.8044 13.4635 82.0992 13.1758C82.4013 12.8882 82.5523 12.4604 82.5523 11.8923V7.11419H83.7818V11.8707C83.7818 12.4819 83.6488 12.9997 83.3828 13.4239C83.1167 13.8482 82.7608 14.1645 82.315 14.3731C81.8692 14.5816 81.3766 14.6859 80.8373 14.6859C80.298 14.6859 79.8055 14.5816 79.3596 14.3731C78.921 14.1645 78.5723 13.8482 78.3134 13.4239C78.0546 12.9997 77.9251 12.4819 77.9251 11.8707V7.11419H79.1547ZM89.2765 14.6104L87.5507 11.6119H86.6124V14.6104H85.3828V7.11419H87.9714C88.5466 7.11419 89.032 7.21486 89.4275 7.41619C89.8301 7.61753 90.1286 7.88718 90.3227 8.22513C90.524 8.56309 90.6247 8.94059 90.6247 9.35765C90.6247 9.8466 90.4809 10.2924 90.1933 10.6951C89.9128 11.0906 89.4778 11.3602 88.8882 11.504L90.7433 14.6104H89.2765ZM86.6124 10.6304H87.9714C88.4316 10.6304 88.7767 10.5153 89.0068 10.2852C89.2441 10.0551 89.3628 9.74594 89.3628 9.35765C89.3628 8.96936 89.2477 8.66735 89.0176 8.45164C88.7875 8.22873 88.4388 8.11727 87.9714 8.11727H86.6124V10.6304ZM95.6168 14.6859C94.9193 14.6859 94.2757 14.5241 93.6861 14.2005C93.1037 13.8697 92.6399 13.4131 92.2947 12.8307C91.9568 12.2411 91.7878 11.5795 91.7878 10.8461C91.7878 10.1127 91.9568 9.45472 92.2947 8.87228C92.6399 8.28985 93.1037 7.83684 93.6861 7.51327C94.2757 7.1825 94.9193 7.01712 95.6168 7.01712C96.3215 7.01712 96.965 7.1825 97.5474 7.51327C98.1371 7.83684 98.6009 8.28985 98.9388 8.87228C99.2768 9.45472 99.4457 10.1127 99.4457 10.8461C99.4457 11.5795 99.2768 12.2411 98.9388 12.8307C98.6009 13.4131 98.1371 13.8697 97.5474 14.2005C96.965 14.5241 96.3215 14.6859 95.6168 14.6859ZM95.6168 13.6181C96.1129 13.6181 96.5551 13.5066 96.9434 13.2837C97.3317 13.0536 97.6337 12.73 97.8494 12.313C98.0724 11.8887 98.1838 11.3998 98.1838 10.8461C98.1838 10.2924 98.0724 9.80706 97.8494 9.39C97.6337 8.97295 97.3317 8.65297 96.9434 8.43006C96.5551 8.20716 96.1129 8.0957 95.6168 8.0957C95.1206 8.0957 94.6784 8.20716 94.2901 8.43006C93.9018 8.65297 93.5962 8.97295 93.3733 9.39C93.1576 9.80706 93.0497 10.2924 93.0497 10.8461C93.0497 11.3998 93.1576 11.8887 93.3733 12.313C93.5962 12.73 93.9018 13.0536 94.2901 13.2837C94.6784 13.5066 95.1206 13.6181 95.6168 13.6181Z" fill="white"/>
<path d="M35.5304 24.8892C35.674 24.6988 35.8696 24.5441 36.1172 24.4251C36.3698 24.3013 36.6496 24.2394 36.9566 24.2394C37.3181 24.2394 37.645 24.3227 37.9371 24.4893C38.2293 24.656 38.4596 24.894 38.628 25.2034C38.7963 25.5081 38.8805 25.858 38.8805 26.2531C38.8805 26.6482 38.7963 27.0028 38.628 27.317C38.4596 27.6265 38.2268 27.8692 37.9297 28.0454C37.6375 28.2168 37.3132 28.3024 36.9566 28.3024C36.6397 28.3024 36.3574 28.2429 36.1098 28.1239C35.8672 28.0049 35.674 27.8526 35.5304 27.6669V28.2382H34.6836V22.9541H35.5304V24.8892ZM38.0188 26.2531C38.0188 25.9817 37.9594 25.7485 37.8406 25.5533C37.7267 25.3534 37.5732 25.2034 37.38 25.1034C37.1918 24.9987 36.9888 24.9463 36.7709 24.9463C36.558 24.9463 36.3549 24.9987 36.1618 25.1034C35.9736 25.2082 35.8201 25.3605 35.7013 25.5604C35.5874 25.7604 35.5304 25.996 35.5304 26.2674C35.5304 26.5387 35.5874 26.7767 35.7013 26.9814C35.8201 27.1814 35.9736 27.3337 36.1618 27.4384C36.3549 27.5432 36.558 27.5955 36.7709 27.5955C36.9888 27.5955 37.1918 27.5432 37.38 27.4384C37.5732 27.3289 37.7267 27.1718 37.8406 26.9671C37.9594 26.7624 38.0188 26.5244 38.0188 26.2531Z" fill="white"/>
<path d="M43.4023 24.3037L40.8916 30.0876H40.0151L40.847 28.1739L39.2351 24.3037H40.1785L41.3298 27.3027L42.5258 24.3037H43.4023Z" fill="white"/>
<path d="M69.4969 26.1353C69.4969 28.5944 67.5732 30.4065 65.2123 30.4065C62.8515 30.4065 60.9277 28.5944 60.9277 26.1353C60.9277 23.659 62.8515 21.8643 65.2123 21.8643C67.5732 21.8643 69.4969 23.659 69.4969 26.1353ZM67.6213 26.1353C67.6213 24.5987 66.5064 23.5473 65.2123 23.5473C63.9183 23.5473 62.8033 24.5987 62.8033 26.1353C62.8033 27.6566 63.9183 28.7235 65.2123 28.7235C66.5064 28.7235 67.6213 27.6547 67.6213 26.1353Z" fill="white"/>
<path d="M78.7391 26.1353C78.7391 28.5944 76.8153 30.4065 74.4545 30.4065C72.0937 30.4065 70.1699 28.5944 70.1699 26.1353C70.1699 23.6609 72.0937 21.8643 74.4545 21.8643C76.8153 21.8643 78.7391 23.659 78.7391 26.1353ZM76.8635 26.1353C76.8635 24.5987 75.7486 23.5473 74.4545 23.5473C73.1604 23.5473 72.0455 24.5987 72.0455 26.1353C72.0455 27.6566 73.1604 28.7235 74.4545 28.7235C75.7486 28.7235 76.8635 27.6547 76.8635 26.1353Z" fill="white"/>
<path d="M87.6 22.1223V29.7902C87.6 32.9445 85.7398 34.2327 83.5407 34.2327C81.4706 34.2327 80.2247 32.8482 79.7549 31.7159L81.3878 31.0362C81.6786 31.7313 82.3911 32.5516 83.5388 32.5516C84.9464 32.5516 85.8187 31.6832 85.8187 30.0483V29.434H85.7533C85.3335 29.952 84.5247 30.4045 83.5041 30.4045C81.3686 30.4045 79.4121 28.5444 79.4121 26.1508C79.4121 23.7399 81.3686 21.8643 83.5041 21.8643C84.5228 21.8643 85.3316 22.3168 85.7533 22.8194H85.8187V22.1242H87.6V22.1223ZM85.9516 26.1508C85.9516 24.6468 84.9483 23.5473 83.6716 23.5473C82.3776 23.5473 81.2934 24.6468 81.2934 26.1508C81.2934 27.6393 82.3776 28.7235 83.6716 28.7235C84.9483 28.7235 85.9516 27.6393 85.9516 26.1508Z" fill="white"/>
<path d="M90.5345 17.6279V30.1447H88.7051V17.6279H90.5345Z" fill="white"/>
<path d="M97.6632 27.5411L99.1193 28.5116C98.6495 29.2068 97.5173 30.4045 95.5605 30.4045C93.1343 30.4045 91.3223 28.529 91.3223 26.1334C91.3223 23.5935 93.1497 21.8623 95.3507 21.8623C97.5672 21.8623 98.6514 23.6262 99.0057 24.5794L99.2002 25.0647L93.4905 27.4294C93.9275 28.2863 94.6075 28.7234 95.5605 28.7234C96.5158 28.7234 97.1782 28.2536 97.6632 27.5411ZM93.1824 26.0044L96.999 24.4196C96.7892 23.8862 96.1578 23.5146 95.4145 23.5146C94.461 23.5146 93.1343 24.356 93.1824 26.0044Z" fill="white"/>
<path d="M54.0037 25.0252V23.2132H60.1099C60.1696 23.529 60.2004 23.9026 60.2004 24.307C60.2004 25.6665 59.8288 27.3476 58.631 28.5453C57.466 29.7585 55.9774 30.4055 54.0056 30.4055C50.3507 30.4055 47.2773 27.4284 47.2773 23.7736C47.2773 20.1187 50.3507 17.1416 54.0056 17.1416C56.0275 17.1416 57.4679 17.935 58.5501 18.9691L57.2715 20.2477C56.4955 19.5198 55.444 18.9536 54.0037 18.9536C51.3347 18.9536 49.2473 21.1046 49.2473 23.7736C49.2473 26.4425 51.3347 28.5935 54.0037 28.5935C55.7348 28.5935 56.7208 27.8983 57.3524 27.2667C57.8646 26.7545 58.2016 26.0227 58.3344 25.0233L54.0037 25.0252Z" fill="white"/>
<path d="M13.9288 0.188606C13.9288 0.188606 11.4887 2.82592 9.472 3.8026C6.65756 5.16558 1.52873 4.81452 1.52873 4.81452C1.08979 4.97981 0.777023 5.43173 0.777922 5.8986L0.705135 21.101C0.705135 24.2886 2.62467 26.8958 5.11299 29.1122C7.60131 31.3281 10.7415 33.2464 13.6258 35.1596C14.0236 35.4423 14.5142 35.4313 14.9094 35.1596C17.7939 33.2467 20.9339 31.3284 23.4222 29.1122C25.9105 26.8962 27.83 24.289 27.83 21.101L27.9028 5.8986C27.904 5.43173 27.591 4.97979 27.152 4.81452C27.152 4.81452 22.0226 5.1659 19.208 3.8026C17.1915 2.82588 14.752 0.188606 14.752 0.188606C14.4587 0.0783164 13.9288 0.188606 13.9288 0.188606ZM14.2676 3.05563C14.2676 3.05563 16.4214 5.5735 18.2154 6.48546C20.7935 7.79603 25.5055 7.24785 25.5055 7.24785V21.101C25.5055 23.3612 24.1313 25.3779 21.8728 27.3894C19.7796 29.2536 16.9957 31.0272 14.2683 32.8223C11.5409 31.0272 8.75696 29.2536 6.66375 27.3894C4.40533 25.3779 3.03111 23.3615 3.03111 21.101V7.24785C3.03111 7.24785 7.81493 7.76303 10.3926 6.45278C12.1866 5.54086 14.2676 3.05563 14.2676 3.05563Z" fill="white"/>
<path d="M7.56055 16.6572L12.8887 21.5009L21.123 13.2666" stroke="white" stroke-width="0.968746" stroke-linecap="round"/>
</svg>
