<svg width="140" height="139" viewBox="0 0 140 139" fill="none" xmlns="http://www.w3.org/2000/svg">
<path d="M132.676 37.0574L78.8268 3.90996C74.9904 1.59409 72.9618 0 69.5623 0C66.1628 0 64.1329 1.59297 60.2977 3.90996L6.44557 37.0574C2.97223 39.2768 0.0761719 41.6156 0.0761719 46.322V129.703C0.0761719 134.799 4.24476 138.967 9.34075 138.967H129.779C134.875 138.967 139.044 134.799 139.044 129.703L139.045 46.322C139.045 41.6156 136.15 39.2768 132.675 37.0574H132.676ZM129.781 123.863L90.337 88.0085L129.781 51.8364V123.863ZM57.4573 92.6455H81.67L122.438 129.703H16.6873L57.4573 92.6455ZM69.562 9.26487C73.7686 11.4934 111.689 34.9096 125.247 43.4333L81.6812 83.3832H57.4455L13.8825 43.4333C27.441 34.9099 65.3572 11.4951 69.5647 9.26487H69.562ZM48.7859 88.0085L9.34199 123.863V51.8364L48.7859 88.0085Z" fill="#0BBD29"/>
</svg>
