<svg width="212" height="68" viewBox="0 0 212 68" fill="none" xmlns="http://www.w3.org/2000/svg">
<path fill-rule="evenodd" clip-rule="evenodd" d="M73.2436 10.4812H81.1535V12.7326H76.0689V16.2965H80.9664V18.5467H76.0689V24.7371H73.2436V10.4812ZM85.8628 17.6091C85.8628 15.1703 86.9924 12.5451 89.8177 12.5451C92.6418 12.5451 93.961 15.1703 93.961 17.6091C93.961 20.2355 92.8313 22.8607 89.8177 22.8607C86.8041 22.8607 85.8628 20.2344 85.8628 17.6091ZM82.8492 17.6091C82.8492 21.9232 85.2967 25.1121 89.8177 25.1121C94.3375 25.1121 96.9746 21.9232 96.9746 17.6091C96.9746 13.2951 94.3375 10.2937 89.8177 10.2937C85.2967 10.2937 82.8492 13.2939 82.8492 17.6091ZM102.247 12.7326H103.189C104.507 12.7326 106.201 12.9201 106.201 14.6077C106.201 16.4829 104.507 16.6716 103.189 16.6716H102.247V12.7326ZM99.2338 24.7371H102.247V18.9229H103.001C104.318 18.9229 104.695 19.2968 105.073 20.4231L106.767 24.7371H109.969L107.709 19.2968C107.522 18.5467 106.957 17.7967 106.202 17.7967V17.6091C108.085 17.4216 109.217 16.109 109.217 14.4202C109.217 10.2937 105.449 10.4812 102.437 10.4812H99.235L99.2338 24.7371ZM112.04 10.4812H120.704V12.7326H115.052V16.2965H120.137V18.5467H115.052V22.4857H120.704V24.7371H112.04V10.4812ZM131.249 13.1076C130.497 12.7326 129.366 12.5451 128.425 12.5451C127.483 12.5451 126.164 12.9201 126.164 14.4202C126.164 17.0466 132.381 15.9215 132.381 20.7981C132.381 23.7995 129.931 25.1121 127.107 25.1121C125.414 25.1121 124.846 24.9246 123.34 24.5496L123.53 21.9232C124.658 22.4857 125.788 22.8619 126.919 22.8619C128.047 22.8619 129.366 22.2982 129.366 20.9856C129.366 18.1729 123.152 19.2968 123.152 14.6089C123.152 11.42 125.599 10.2949 128.236 10.2949C129.365 10.2949 130.497 10.4824 131.625 10.6699L131.249 13.1076ZM137.653 12.7326H133.509V10.4812H144.62V12.7326H140.477V24.7371H137.653V12.7326ZM80.9664 34.4902C80.0251 34.1152 78.8942 33.7402 77.9528 33.7402C77.0115 33.7402 75.6936 34.3015 75.6936 35.804C75.6936 38.2417 82.0961 37.3041 82.0961 41.9932C82.0961 45.1821 79.459 46.3084 76.6349 46.3084C75.1287 46.3084 74.3744 46.1197 72.8682 45.7435L73.2436 43.3058C74.1862 43.6808 75.3158 44.057 76.4454 44.057C77.5751 44.057 79.0825 43.4921 79.0825 42.1819C79.0825 39.5555 72.68 40.6794 72.68 35.9903C72.68 32.8026 75.1287 31.4888 77.7646 31.4888C78.8942 31.4888 80.0251 31.6763 81.1547 32.0513L80.9664 34.4902ZM87.1807 34.1152H83.0375V31.8638H94.3375V34.1152H90.1931V46.1185H87.1807V34.1152ZM96.032 31.8638H104.507V34.1152H99.0444V37.4905H104.13V39.9305H99.0444V43.8683H104.695V46.1185H96.032V31.8638ZM106.013 31.8638H109.216L111.851 43.3058L114.301 31.8638H118.254L120.704 43.3058H120.891L123.528 31.8638H126.354L122.587 46.1185H118.819L116.183 34.6765L113.733 46.1185H109.968L106.013 31.8638ZM135.205 40.4919H131.062L133.133 34.6765L135.205 40.4919ZM125.976 46.1185H128.988L130.119 42.7432H135.956L137.275 46.1185H140.477L134.827 31.8638H131.625L125.976 46.1185ZM144.998 34.1152H145.939C147.258 34.1152 148.954 34.1152 148.954 35.9903C148.954 37.6792 147.258 37.8655 145.939 37.8655H144.998V34.1152ZM141.983 46.1185H144.998V40.1168H145.939C147.068 40.1168 147.445 40.4919 147.822 41.617L149.705 46.1197H152.906L150.459 40.4931C150.269 39.9305 149.705 39.1793 148.953 38.993C150.835 38.8042 151.965 37.3041 151.965 35.6153C151.965 31.6775 148.198 31.865 145.185 31.865H141.983V46.1185ZM157.804 34.1152H159.497C161.758 34.1152 164.205 35.804 164.205 38.993C164.205 41.9932 161.758 43.8683 159.497 43.8683H157.804V34.1152ZM154.98 46.1185H158.934C163.264 46.1185 167.22 44.6184 167.22 38.9918C167.22 33.1764 163.264 31.8638 158.934 31.8638H154.98V46.1185ZM177.578 34.4902C176.636 34.1152 175.695 33.7402 174.565 33.7402C173.624 33.7402 172.305 34.3015 172.305 35.804C172.305 38.2417 178.708 37.3041 178.708 41.9932C178.708 45.1821 176.071 46.3084 173.246 46.3084C171.74 46.3084 170.986 46.1197 169.479 45.7435L169.856 43.3058C170.797 43.6808 171.927 44.057 173.058 44.057C174.186 44.057 175.692 43.4921 175.692 42.1819C175.692 39.5555 169.291 40.6794 169.291 35.9903C169.291 32.8026 171.739 31.4888 174.373 31.4888C175.692 31.4888 176.823 31.6763 177.765 32.0513L177.578 34.4902ZM181.345 31.8638H184.171V37.4905H190.007V31.8638H192.831V46.1185H190.007V39.9305H184.171V46.1185H181.345V31.8638ZM195.846 31.8638H198.859V46.1185H195.846V31.8638ZM204.51 34.1152H205.639C206.958 34.1152 208.276 34.6777 208.276 36.3666C208.276 37.8667 206.957 38.4292 205.639 38.4292H204.51V34.1152ZM201.683 46.1185H204.509V40.6782H205.826C208.841 40.6782 211.288 39.5543 211.288 36.1779C211.288 32.6127 208.464 31.8626 205.262 31.8626H201.684L201.683 46.1185ZM83.6023 67.1273C82.6609 67.5023 81.5301 67.6898 80.4004 67.6898C75.6924 67.6898 72.4905 65.4385 72.4905 60.5607C72.4905 55.499 75.5041 52.8714 80.4004 52.8714C81.343 52.8714 82.6609 53.0577 83.6023 53.434L83.414 55.8716C82.2844 55.3091 81.343 55.1228 80.2133 55.1228C77.388 55.1228 75.5053 57.3741 75.5053 60.3732C75.5053 63.1859 77.1997 65.4373 80.4016 65.4373C81.5313 65.4373 82.8504 65.2509 83.6035 64.8747L83.6023 67.1273ZM88.1221 60.1881C88.1221 57.748 89.2517 55.124 92.077 55.124C94.9011 55.124 96.2203 57.748 96.2203 60.1881C96.2203 62.8121 95.0906 65.4385 92.077 65.4385C89.2517 65.4385 88.1221 62.8121 88.1221 60.1881ZM85.1085 60.1881C85.1085 64.6884 87.5572 67.6898 92.077 67.6898C96.5968 67.6898 99.2326 64.5009 99.2326 60.1881C99.2326 55.8728 96.5956 52.8726 92.077 52.8726C87.5572 52.8726 85.1085 55.8716 85.1085 60.1881ZM101.681 53.0589H104.507V61.3119C104.507 63.7496 105.448 65.4385 107.52 65.4385C109.781 65.4385 110.535 63.7496 110.535 61.3119V53.0589H113.547V62.2495C113.547 66.001 111.287 67.6898 107.522 67.6898C103.943 67.6898 101.683 66.001 101.683 62.2495L101.681 53.0589ZM116.559 53.0589H120.137L125.599 63.7496V53.0589H128.424V67.5035H124.845L119.385 56.6229V67.5035H116.559V53.0589ZM141.983 67.1273C141.042 67.5023 139.912 67.6898 138.783 67.6898C134.073 67.6898 130.871 65.4385 130.871 60.5607C130.871 55.499 133.886 52.8714 138.783 52.8714C139.725 52.8714 141.042 53.0577 141.983 53.434L141.796 55.8716C140.667 55.3091 139.725 55.1228 138.783 55.1228C135.769 55.1228 133.886 57.3741 133.886 60.3732C133.886 63.1859 135.769 65.4373 138.783 65.4373C139.912 65.4373 141.231 65.2509 141.983 64.8747V67.1273ZM143.868 53.0589H146.88V67.5035H143.868V53.0589ZM149.895 53.0589H152.719V65.2521H158.369V67.5035H149.895V53.0589ZM55.9175 8.79359C57.9886 8.79359 59.8725 7.10476 59.8725 4.85459C59.8725 2.60442 57.9886 0.915595 55.9175 0.915595C53.6583 0.915595 51.7743 2.60442 51.7743 4.85459C51.7743 7.10476 53.6583 8.79359 55.9175 8.79359ZM55.9175 8.04234C54.0336 8.04234 52.5274 6.72973 52.5274 4.85339C52.5274 3.16457 54.0336 1.66565 55.9175 1.66565C57.612 1.66565 59.1182 3.16576 59.1182 4.85339C59.1194 6.72973 57.6132 8.04234 55.9175 8.04234ZM57.0472 5.60465C56.8589 6.1672 56.4824 6.35471 56.1058 6.35471C55.1644 6.35471 54.7879 5.60464 54.7879 4.85459C54.7879 4.10453 55.1644 3.35448 55.9175 3.35448C56.4824 3.35448 56.8589 3.54199 57.0472 4.10453H57.8003C57.8003 3.16696 57.0472 2.60442 55.9175 2.60442C54.5996 2.60442 53.8453 3.54199 53.8453 4.85459C53.8453 6.16838 54.5984 7.10596 56.1046 7.10596C56.8577 7.10596 57.8003 6.54342 57.8003 5.60585L57.0472 5.60465ZM18.2519 61.4983C20.5112 61.4983 21.4525 61.4983 21.8303 63.5633H22.3951C22.3951 61.8745 22.3951 60.188 22.5834 58.4992H22.0186C21.4525 60.188 20.3229 60.3744 18.4401 60.3744H16.5562V55.3103H18.2519C20.7006 55.3103 22.5834 55.3103 22.5834 57.9367H23.3365L23.9013 54.3727H10.5302V54.9353C13.1673 55.3103 13.5438 55.124 13.5438 58.6867V63.1895C13.5438 66.7534 13.1673 66.5671 10.5302 66.941V67.5059H20.1346V66.941C16.3679 66.7546 16.5562 65.8171 16.5562 63.1895V61.5007H18.2519V61.4983ZM35.9545 54.9341C34.8248 54.3715 33.5057 54.1852 32.1878 54.1852C29.3625 54.1852 26.5383 55.499 26.5383 58.123C26.5383 61.8745 34.0717 61.687 34.0717 64.8759C34.0717 66.1897 32.9421 66.9386 31.4359 66.9386C28.7988 66.9386 27.1044 64.8759 26.3501 63.0008H25.597L26.3501 66.9386C27.668 67.5035 29.3637 67.8761 30.8699 67.8761C33.8834 67.8761 36.8958 66.7522 36.8958 63.9383C36.8958 59.8118 29.5507 60.1869 29.5507 56.9979C29.5507 55.8716 30.4921 54.9329 31.81 54.9329C34.2588 54.9329 34.6353 56.808 35.2002 58.3105H35.765L35.9545 54.9341ZM54.2231 55.1228C52.5286 54.3715 50.6447 54.1852 48.7619 54.1852C43.8656 54.1852 39.1575 56.6229 39.1575 61.1256C39.1575 65.626 43.6773 67.8761 48.5736 67.8761C50.2693 67.8761 51.9638 67.5035 53.6595 66.9386L55.1656 63.0008L54.4126 62.8121C53.2829 64.8771 51.7755 66.9386 48.7631 66.9386C44.9964 66.9386 42.9242 63.5633 42.9242 60.7494C42.9242 57.9355 44.8082 54.9341 48.5736 54.9341C51.399 54.9341 52.9052 56.6229 53.47 58.8743H54.2231V55.1228ZM40.8508 41.992C40.6625 47.4323 41.6039 49.87 38.5915 49.6825C24.8439 49.1199 26.5383 52.1202 26.3501 40.8669L19.9475 41.8045C17.4988 41.9908 15.8043 37.4893 20.1358 37.1154C31.6242 35.9891 31.2476 33.3627 31.0593 44.9934H36.1439V37.1154C36.1439 35.8016 37.6501 34.8641 38.7798 34.8641C41.0403 34.8641 40.852 38.6155 45.7483 38.6155C48.949 38.4268 51.2095 35.9891 51.2095 32.8002C51.2095 26.4223 46.5014 28.8612 46.5014 25.4848C46.5014 24.7347 46.878 24.1722 47.0662 23.6096C48.1959 20.7969 47.4428 17.2329 44.994 15.3566C43.4878 14.044 40.6625 13.8565 40.4742 12.3552C40.286 9.54245 39.7212 8.04114 36.7076 6.35351C34.6353 5.22843 31.4347 5.41594 29.3625 6.72854C22.2068 11.0426 16.7445 32.4252 14.8617 41.2419C14.4852 43.1171 14.2969 45.931 12.0376 45.931C10.908 45.931 10.342 45.1797 9.58885 44.4309C6.95301 41.6158 5.06907 39.7394 2.80978 37.1154C1.86721 36.1779 0.737561 35.2403 0.549287 33.7378C0.361012 32.6127 1.67893 31.4864 2.99805 31.4864C4.31597 31.4864 4.8808 32.6115 6.95301 34.6742C8.45921 36.5493 8.64748 36.7392 10.7197 38.8007C11.0962 37.4869 11.2845 36.363 11.6611 35.2391C13.1685 29.2362 14.6747 23.2334 17.1234 17.4192C19.7593 10.6675 24.092 0.913208 33.1315 0.913208C36.1451 0.913208 38.9693 2.03829 41.418 4.10095C42.9242 5.41475 43.8668 6.91486 44.6187 8.97752C44.6187 9.16503 44.6187 9.16503 44.807 9.91509C44.9952 10.1026 45.1835 10.1026 45.5601 10.2901C45.9366 10.4776 46.5014 10.6651 46.878 11.0402C50.2681 13.2903 52.3403 16.2918 52.1509 20.6058C52.1509 23.231 51.9626 23.231 51.7743 24.3573C51.9626 24.5448 53.2805 25.4824 53.8465 26.2336C55.3527 28.1088 55.9187 30.3601 55.9187 32.799C55.9187 38.4244 51.399 43.1159 45.5601 43.1159C43.8656 43.1195 42.3582 42.9296 40.8508 41.992Z" fill="#0BBD29"/>
</svg>
