<svg width="123" height="66" viewBox="0 0 123 66" fill="none" xmlns="http://www.w3.org/2000/svg">
<rect width="123" height="66" fill="white"/>
<path d="M27.5762 56.0464V37.623H34.3009C35.6719 37.623 36.7692 37.8096 37.5983 38.1828C38.4246 38.5559 39.0695 39.1296 39.5382 39.9065C40.0096 40.6778 40.2427 41.4882 40.2427 42.3375C40.2427 43.12 40.034 43.8635 39.6222 44.5569C39.2077 45.2531 38.5818 45.8128 37.7446 46.2416C38.8283 46.5674 39.6628 47.1271 40.2427 47.9152C40.8279 48.7005 41.1178 49.6306 41.1178 50.7027C41.1178 51.5687 40.939 52.3707 40.584 53.1114C40.2318 53.8549 39.7929 54.423 39.27 54.8268C38.7498 55.225 38.0941 55.5313 37.3111 55.7373C36.5226 55.9434 35.5581 56.0464 34.4147 56.0464H27.5762ZM29.955 45.3672H33.8295C34.8807 45.3672 35.6367 45.2948 36.0918 45.1528C36.696 44.969 37.1512 44.6599 37.4574 44.2311C37.7608 43.8022 37.9153 43.2676 37.9153 42.6188C37.9153 42.0061 37.7744 41.4659 37.4845 41.0036C37.2027 40.5358 36.7936 40.2128 36.2625 40.0429C35.7342 39.8703 34.8238 39.784 33.5396 39.784H29.955V45.3672ZM29.955 53.8828H34.4201C35.1869 53.8828 35.7261 53.8549 36.0377 53.7936C36.5795 53.6962 37.0401 53.5291 37.4059 53.2924C37.7744 53.0557 38.0724 52.7132 38.3108 52.2621C38.5493 51.8137 38.6658 51.293 38.6658 50.7054C38.6658 50.0176 38.4951 49.4189 38.1483 48.9093C37.8069 48.3997 37.33 48.0433 36.7231 47.8372C36.1162 47.6312 35.2411 47.5281 34.1031 47.5281H29.955V53.8828Z" fill="black"/>
<path d="M43.2715 49.371C43.2715 46.9066 43.938 45.0798 45.2792 43.8908C46.3927 42.905 47.7556 42.4121 49.3622 42.4121C51.145 42.4121 52.6054 43.0108 53.7379 44.2138C54.8705 45.4084 55.4367 47.0681 55.4367 49.1816C55.4367 50.897 55.1875 52.2448 54.6862 53.225C54.185 54.208 53.4561 54.971 52.497 55.5168C51.5406 56.0598 50.4948 56.3299 49.3622 56.3299C47.5442 56.3299 46.0757 55.734 44.954 54.5366C43.8323 53.3419 43.2715 51.6182 43.2715 49.371ZM45.5257 49.3738C45.5257 51.0808 45.8888 52.359 46.6122 53.2055C47.3437 54.052 48.2568 54.4781 49.3622 54.4781C50.4568 54.4781 51.3645 54.052 52.096 53.1999C52.8221 52.3478 53.1852 51.0474 53.1852 49.3014C53.1852 47.6556 52.8167 46.4081 52.0879 45.5644C51.3564 44.715 50.4487 44.289 49.3622 44.289C48.2568 44.289 47.3437 44.7095 46.6122 45.556C45.8888 46.3998 45.5257 47.6724 45.5257 49.3738Z" fill="black"/>
<path d="M57.9707 56.0464V37.623H60.1735V56.0464H57.9707Z" fill="black"/>
<path d="M72.4421 51.7221L74.718 52.0312C74.3631 53.3901 73.702 54.4511 72.732 55.2002C71.7648 55.952 70.5293 56.328 69.0228 56.328C67.129 56.328 65.6279 55.7292 64.5171 54.5263C63.4089 53.3316 62.8535 51.6469 62.8535 49.4804C62.8535 47.2416 63.4117 45.5011 64.5361 44.2675C65.6578 43.0284 67.1127 42.4102 68.9036 42.4102C70.6349 42.4102 72.0492 43.0144 73.1466 44.2285C74.2439 45.4399 74.7939 47.1469 74.7939 49.3468C74.7939 49.4804 74.7885 49.6809 74.7803 49.9483H65.1077C65.189 51.4102 65.59 52.5324 66.3161 53.3094C67.0368 54.0863 67.9445 54.4761 69.0228 54.4761C69.8302 54.4761 70.5184 54.2562 71.0847 53.819C71.6564 53.3818 72.1061 52.6828 72.4421 51.7221ZM65.2324 48.0965H72.4665C72.369 46.9715 72.0899 46.1305 71.6347 45.5708C70.9384 44.6992 70.028 44.262 68.9145 44.262C67.9066 44.262 67.0585 44.61 66.3703 45.3034C65.6876 45.9996 65.3055 46.9297 65.2324 48.0965Z" fill="black"/>
<path d="M82.2839 54.0256L82.5846 56.025C81.9669 56.1586 81.4114 56.2255 80.9291 56.2255C80.1299 56.2255 79.5148 56.0974 79.0705 55.8356C78.6343 55.5739 78.3254 55.2341 78.1439 54.8109C77.9651 54.3876 77.8784 53.4937 77.8784 52.1348V44.4435H76.25V42.692H77.8784V39.3921L80.0811 38.0332V42.692H82.2839V44.4435H80.0811V52.2629C80.0811 52.9117 80.119 53.3266 80.1976 53.5104C80.2735 53.697 80.3981 53.8418 80.5742 53.9532C80.7476 54.059 80.9996 54.1175 81.3247 54.1175C81.5659 54.1175 81.8883 54.0868 82.2839 54.0256Z" fill="black"/>
<path d="M83.6309 49.371C83.6309 46.9066 84.3001 45.0798 85.6385 43.8908C86.7521 42.905 88.1176 42.4121 89.7216 42.4121C91.5044 42.4121 92.9648 43.0108 94.1 44.2138C95.2298 45.4084 95.7988 47.0681 95.7988 49.1816C95.7988 50.897 95.5468 52.2448 95.0456 53.225C94.5444 54.208 93.8155 54.971 92.8564 55.5168C91.9 56.0598 90.8541 56.3299 89.7216 56.3299C87.9036 56.3299 86.4351 55.734 85.3134 54.5366C84.1917 53.3419 83.6309 51.6182 83.6309 49.371ZM85.8851 49.3738C85.8851 51.0808 86.2481 52.359 86.9743 53.2055C87.7031 54.052 88.6189 54.4781 89.7216 54.4781C90.8162 54.4781 91.7266 54.052 92.4554 53.1999C93.1815 52.3478 93.5446 51.0474 93.5446 49.3014C93.5446 47.6556 93.1788 46.4081 92.4473 45.5644C91.7157 44.715 90.8081 44.289 89.7216 44.289C88.6189 44.289 87.7031 44.7095 86.9743 45.556C86.2481 46.3998 85.8851 47.6724 85.8851 49.3738Z" fill="black"/>
<path d="M14 10V55.599H15.7902V10H14Z" fill="black"/>
<path d="M17.356 10V55.599H20.5668V10H17.356Z" fill="black"/>
<path d="M23.6629 10V34.4787H25.4532V10H23.6629Z" fill="black"/>
<path d="M26.2352 10V34.4787H27.6184V10H26.2352Z" fill="black"/>
<path d="M28.8473 10V34.4787H32.058V10H28.8473Z" fill="black"/>
<path d="M32.8 10V34.4787H34.5943V10H32.8Z" fill="black"/>
<path d="M37.199 10V34.4787H42.9892V10H37.199Z" fill="black"/>
<path d="M44.8127 10V34.4787H46.6029V10H44.8127Z" fill="black"/>
<path d="M48.1687 10V34.4787H51.3795V10H48.1687Z" fill="black"/>
<path d="M54.4727 10V34.4787H56.2629V10H54.4727Z" fill="black"/>
<path d="M57.0479 10V34.4787H58.4311V10H57.0479Z" fill="black"/>
<path d="M60.7016 10V34.4787H63.9123V10H60.7016Z" fill="black"/>
<path d="M67.0055 10V34.4787H68.7999V10H67.0055Z" fill="black"/>
<path d="M69.5837 10V34.4787H70.9627V10H69.5837Z" fill="black"/>
<path d="M72.1898 10V34.4787H75.4006V10H72.1898Z" fill="black"/>
<path d="M76.144 10V34.4787H77.9384V10H76.144Z" fill="black"/>
<path d="M80.325 10V34.4787H82.1194V10H80.325Z" fill="black"/>
<path d="M82.8958 10V34.4787H84.279V10H82.8958Z" fill="black"/>
<path d="M85.5064 10V34.4787H88.7172V10H85.5064Z" fill="black"/>
<path d="M89.4665 10V34.4787H91.2567V10H89.4665Z" fill="black"/>
<path d="M92.8225 10V34.4787H98.6085V10H92.8225Z" fill="black"/>
<path d="M100.432 10V55.599H102.226V10H100.432Z" fill="black"/>
<path d="M103.789 10V55.599H107V10H103.789Z" fill="black"/>
</svg>
