<svg width="150" height="150" viewBox="0 0 150 150" fill="none" xmlns="http://www.w3.org/2000/svg">
<rect width="150" height="150" rx="42" fill="url(#paint0_linear_322_273)"/>
<path d="M51.5398 90.6192C52.0853 86.1025 53.9378 83.5738 57.4286 80.9815C62.4236 77.4705 68.6627 79.4564 68.6627 79.4564V67.6746C70.1798 67.6355 71.6972 67.7256 73.1972 67.943V83.1053C73.1972 83.1053 66.9598 81.1194 61.9652 84.6322C58.4762 87.2227 56.6199 89.7535 56.0762 94.2703C56.0592 96.7229 56.5195 99.9288 58.6392 102.701C58.1149 102.432 57.5808 102.126 57.0366 101.782C52.3675 98.647 51.5171 93.9435 51.5398 90.6192ZM98.9596 45.8895C95.5236 42.1244 94.224 38.3229 93.7545 35.6525H98.0768C98.0768 35.6525 97.2149 42.6545 103.496 49.5403L103.583 49.6329C101.89 48.5681 100.338 47.3112 98.9596 45.8895ZM119.781 56.5641V71.4216C119.781 71.4216 114.266 71.2055 110.184 70.167C104.484 68.7145 100.821 66.487 100.821 66.487C100.821 66.487 98.2908 64.8987 98.0862 64.7881V95.4683C98.0862 97.1767 97.6184 101.443 96.1921 105.001C94.3301 109.656 91.4568 112.711 90.9283 113.336C90.9283 113.336 87.4337 117.466 81.2683 120.247C75.7109 122.756 70.8315 122.692 69.373 122.756C69.373 122.756 60.9386 123.09 53.3487 118.157C51.7074 117.07 50.1754 115.839 48.7725 114.479L48.8104 114.506C56.402 119.439 64.8346 119.105 64.8346 119.105C66.2952 119.041 71.1743 119.105 76.7299 116.596C82.8897 113.815 86.39 109.685 86.39 109.685C86.9129 109.06 89.7994 106.005 91.6537 101.349C93.0762 97.7921 93.5478 93.5239 93.5478 91.8159V61.1391C93.7524 61.2515 96.2811 62.8399 96.2811 62.8399C96.2811 62.8399 99.9464 65.0694 105.646 66.5199C109.729 67.5584 115.243 67.7744 115.243 67.7744V56.1321C117.13 56.555 118.738 56.6695 119.781 56.5641Z" fill="#0F954C"/>
<path d="M115.243 56.1321V67.7706C115.243 67.7706 109.729 67.5545 105.646 66.5164C99.9464 65.0638 96.281 62.8364 96.281 62.8364C96.281 62.8364 93.7523 61.2481 93.5477 61.1353V91.8194C93.5477 93.5278 93.08 97.7956 91.6536 101.352C89.7916 106.009 86.9184 109.064 86.3899 109.688C86.3899 109.688 82.8935 113.818 76.7298 116.6C71.1742 119.109 66.2951 119.045 64.8346 119.109C64.8346 119.109 56.402 119.443 48.8103 114.51L48.7724 114.483C47.9709 113.707 47.2164 112.887 46.5127 112.029C44.0901 109.075 42.6051 105.582 42.2319 104.585V104.573C41.6315 102.841 40.37 98.6816 40.5424 94.6532C40.8474 87.5459 43.3476 83.1835 44.0087 82.0905C45.7594 79.1104 48.0365 76.4438 50.7385 74.2101C53.1229 72.2821 55.8255 70.7482 58.7354 69.6713C61.8813 68.407 65.25 67.7291 68.6608 67.6746V79.4564C68.6608 79.4564 62.4214 77.4778 57.4285 80.9815C53.9377 83.5738 52.0852 86.1025 51.5397 90.6192C51.517 93.9435 52.3675 98.647 57.0326 101.784C57.5768 102.129 58.1113 102.435 58.6353 102.703C59.4504 103.762 60.4421 104.685 61.571 105.435C66.1282 108.32 69.9468 108.521 74.8301 106.648C78.086 105.395 80.5372 102.572 81.6735 99.444C82.3877 97.4909 82.3782 95.5245 82.3782 93.4915V35.6525H93.7429C94.2127 38.3229 95.512 42.1244 98.948 45.8895C100.327 47.3112 101.879 48.5681 103.572 49.6329C104.072 50.1503 106.629 52.7082 109.911 54.2785C111.609 55.0903 113.398 55.7122 115.243 56.1321Z" fill="white"/>
<path d="M37.7109 100.968V100.977L37.9929 101.741C37.9605 101.652 37.8557 101.381 37.7109 100.968Z" fill="white"/>
<path d="M58.7349 69.6714C55.8249 70.7486 53.1223 72.2825 50.7379 74.2101C48.035 76.4491 45.7585 79.1213 44.0099 82.107C43.3489 83.1965 40.8486 87.5624 40.5437 94.6697C40.3713 98.698 41.6328 102.857 42.2332 104.589V104.602C42.612 105.59 44.0914 109.082 46.514 112.045C47.2177 112.904 47.9721 113.723 48.7737 114.499C46.2056 112.797 43.9152 110.739 41.9775 108.392C39.5757 105.464 38.0945 102.008 37.7081 100.987C37.7077 100.98 37.7077 100.973 37.7081 100.966V100.953C37.1058 99.2227 35.8405 95.0617 36.0167 91.0281C36.3216 83.9208 38.8219 79.5584 39.4829 78.4654C41.231 75.479 43.5076 72.8068 46.2109 70.5685C48.5948 68.6399 51.2975 67.106 54.2079 66.0298C56.0233 65.3079 57.9145 64.7756 59.8488 64.4415C62.7636 63.9538 65.7409 63.9112 68.6697 64.3162V67.6747C65.2557 67.7281 61.8836 68.406 58.7349 69.6714Z" fill="white"/>
<path d="M93.752 35.6526H82.387V93.4935C82.387 95.5265 82.387 97.4873 81.6826 99.446C80.5348 102.572 78.093 105.395 74.8389 106.648C69.9542 108.529 66.1356 108.32 61.5802 105.435C60.4491 104.689 59.4546 103.769 58.6367 102.712C62.5178 104.696 65.9915 104.662 70.2949 103.006C73.5473 101.753 75.9926 98.9304 77.1365 95.8026C77.8525 93.8492 77.8431 91.8832 77.8431 89.8515V32H93.5359C93.5359 32 93.36 33.4378 93.752 35.6526ZM115.243 52.9135V56.1322C113.401 55.7117 111.615 55.0898 109.92 54.2787C106.638 52.7084 104.081 50.1505 103.581 49.633C104.161 49.9982 104.763 50.3304 105.384 50.6279C109.375 52.5377 113.305 53.1078 115.243 52.9135Z" fill="white"/>
<defs>
<linearGradient id="paint0_linear_322_273" x1="109" y1="-12" x2="12.5" y2="150" gradientUnits="userSpaceOnUse">
<stop stop-color="#DDEBCC"/>
<stop offset="0.247526" stop-color="#84CD7A"/>
<stop offset="0.495052" stop-color="#0BBD29"/>
<stop offset="0.75" stop-color="#0F954C"/>
<stop offset="1" stop-color="#0E4434"/>
</linearGradient>
</defs>
</svg>
