<svg width="85" height="67" viewBox="0 0 85 67" fill="none" xmlns="http://www.w3.org/2000/svg">
<rect y="0.287109" width="85" height="66" fill="white"/>
<path d="M20.4692 59.6732V56.1224C20.4692 54.7641 19.643 53.8746 18.2248 53.8746C17.5156 53.8746 16.7446 54.1091 16.2145 54.8813C15.8014 54.2332 15.2093 53.8746 14.3212 53.8746C13.7291 53.8746 13.1371 54.0539 12.6689 54.7021V53.9919H11.4297V59.6732H12.6689V56.5361C12.6689 55.5295 13.199 55.0537 14.0252 55.0537C14.8513 55.0537 15.2644 55.5846 15.2644 56.5361V59.6732H16.5037V56.5361C16.5037 55.5295 17.0957 55.0537 17.8599 55.0537C18.6861 55.0537 19.0992 55.5846 19.0992 56.5361V59.6732H20.4692ZM38.8511 53.9919H36.8408V52.2751H35.6016V53.9919H34.4794V55.1157H35.6016V57.722C35.6016 59.0251 36.1317 59.7905 37.5499 59.7905C38.08 59.7905 38.6721 59.6112 39.0852 59.3767L38.7272 58.3081C38.3692 58.5425 37.9561 58.6045 37.66 58.6045C37.068 58.6045 36.8339 58.246 36.8339 57.66V55.1157H38.8442V53.9919H38.8511ZM49.3707 53.8678C48.6616 53.8678 48.1866 54.2263 47.8906 54.6951V53.985H46.6513V59.6664H47.8906V56.4672C47.8906 55.5226 48.3037 54.9848 49.0747 54.9848C49.3088 54.9848 49.6048 55.0468 49.8458 55.102L50.2038 53.9161C49.956 53.8678 49.6048 53.8678 49.3707 53.8678ZM33.4742 54.4608C32.8821 54.047 32.056 53.8678 31.1679 53.8678C29.7496 53.8678 28.8065 54.578 28.8065 55.7018C28.8065 56.6464 29.5156 57.1842 30.7548 57.3566L31.3469 57.4186C31.994 57.5359 32.352 57.7151 32.352 58.0116C32.352 58.4253 31.877 58.7218 31.0508 58.7218C30.2247 58.7218 29.5706 58.4253 29.1576 58.1288L28.5655 59.0734C29.2126 59.5491 30.1007 59.7836 30.9889 59.7836C32.6412 59.7836 33.5913 59.0113 33.5913 57.9495C33.5913 56.9429 32.8202 56.412 31.6429 56.2327L31.0508 56.1707C30.5207 56.1086 30.1077 55.9914 30.1077 55.6397C30.1077 55.2261 30.5207 54.9916 31.1748 54.9916C31.8839 54.9916 32.593 55.2881 32.951 55.4674L33.4742 54.4608ZM66.4446 53.8678C65.7355 53.8678 65.2604 54.2263 64.9644 54.6951V53.985H63.7252V59.6664H64.9644V56.4672C64.9644 55.5226 65.3775 54.9848 66.1485 54.9848C66.3826 54.9848 66.6787 55.0468 66.9196 55.102L67.2776 53.9298C67.0367 53.8678 66.6856 53.8678 66.4446 53.8678ZM50.61 56.8326C50.61 58.5494 51.7941 59.7905 53.6254 59.7905C54.4516 59.7905 55.0437 59.6112 55.6357 59.1424L55.0437 58.1357C54.5686 58.4942 54.1005 58.6666 53.5635 58.6666C52.5583 58.6666 51.8492 57.9565 51.8492 56.8326C51.8492 55.7638 52.5583 55.0537 53.5635 54.9985C54.0936 54.9985 54.5686 55.1778 55.0437 55.5295L55.6357 54.5228C55.0437 54.047 54.4516 53.8746 53.6254 53.8746C51.7941 53.8678 50.61 55.1157 50.61 56.8326ZM62.0729 56.8326V53.9919H60.8336V54.7021C60.4205 54.1711 59.8285 53.8746 59.0574 53.8746C57.4602 53.8746 56.2209 55.1157 56.2209 56.8326C56.2209 58.5494 57.4602 59.7905 59.0574 59.7905C59.8835 59.7905 60.4756 59.494 60.8336 58.9631V59.6732H62.0729V56.8326ZM57.5221 56.8326C57.5221 55.826 58.1693 54.9985 59.2364 54.9985C60.2415 54.9985 60.9507 55.7708 60.9507 56.8326C60.9507 57.8392 60.2415 58.6666 59.2364 58.6666C58.1762 58.6046 57.5221 57.8324 57.5221 56.8326ZM42.6927 53.8678C41.0404 53.8678 39.8563 55.0537 39.8563 56.8256C39.8563 58.6046 41.0404 59.7836 42.7547 59.7836C43.5808 59.7836 44.407 59.5491 45.061 59.0113L44.4689 58.1219C43.9939 58.4805 43.4018 58.7149 42.8166 58.7149C42.0455 58.7149 41.2813 58.3563 41.1023 57.3566H45.2951C45.2951 57.1773 45.2951 57.0601 45.2951 56.8808C45.3502 55.0537 44.2831 53.8678 42.6927 53.8678ZM42.6927 54.9365C43.4638 54.9365 43.9939 55.4122 44.1109 56.2948H41.1574C41.2745 55.5295 41.8046 54.9365 42.6927 54.9365ZM73.4807 56.8326V51.7441H72.2415V54.7021C71.8284 54.1711 71.2363 53.8746 70.4652 53.8746C68.868 53.8746 67.6287 55.1157 67.6287 56.8326C67.6287 58.5494 68.868 59.7905 70.4652 59.7905C71.2914 59.7905 71.8834 59.494 72.2415 58.9631V59.6732H73.4807V56.8326ZM68.93 56.8326C68.93 55.826 69.5771 54.9985 70.6442 54.9985C71.6494 54.9985 72.3585 55.7708 72.3585 56.8326C72.3585 57.8392 71.6494 58.6666 70.6442 58.6666C69.5771 58.6046 68.93 57.8324 68.93 56.8326ZM27.4433 56.8326V53.9919H26.2041V54.7021C25.791 54.1711 25.1989 53.8746 24.4278 53.8746C22.8306 53.8746 21.5913 55.1157 21.5913 56.8326C21.5913 58.5494 22.8306 59.7905 24.4278 59.7905C25.254 59.7905 25.846 59.494 26.2041 58.9631V59.6732H27.4433V56.8326ZM22.8375 56.8326C22.8375 55.826 23.4846 54.9985 24.5518 54.9985C25.5569 54.9985 26.266 55.7708 26.266 56.8326C26.266 57.8392 25.5569 58.6666 24.5518 58.6666C23.4846 58.6046 22.8375 57.8324 22.8375 56.8326Z" fill="black"/>
<path d="M51.6746 10.8457H33.0586V44.3409H51.6746V10.8457Z" fill="#FF5A00"/>
<path d="M34.2992 27.5922C34.2992 20.787 37.4937 14.7471 42.3955 10.8446C38.7879 8.00393 34.2372 6.28711 29.2734 6.28711C17.5146 6.28711 8 15.8158 8 27.5922C8 39.3686 17.5146 48.8974 29.2734 48.8974C34.2372 48.8974 38.7879 47.1805 42.3955 44.3399C37.4867 40.4925 34.2992 34.3975 34.2992 27.5922Z" fill="#EB001B"/>
<path d="M76.792 27.5922C76.792 39.3686 67.2774 48.8974 55.5185 48.8974C50.5547 48.8974 46.0041 47.1805 42.3965 44.3399C47.3603 40.4304 50.4928 34.3975 50.4928 27.5922C50.4928 20.787 47.2983 14.7471 42.3965 10.8446C45.9971 8.00393 50.5479 6.28711 55.5117 6.28711C67.2774 6.28711 76.792 15.8779 76.792 27.5922Z" fill="#FFB624"/>
</svg>
