<svg width="102" height="66" viewBox="0 0 102 66" fill="none" xmlns="http://www.w3.org/2000/svg">
<rect x="0.166016" width="101.597" height="66" fill="#021177"/>
<path d="M66.4217 24.2281C64.8207 23.6447 63.1284 23.3519 61.4244 23.3636C55.9139 23.3636 52.0222 26.1395 51.9946 30.1243C51.9602 33.0517 54.7602 34.7014 56.8783 35.6795C59.0515 36.6852 59.7782 37.3189 59.7713 38.2178C59.7575 39.5851 58.0355 40.205 56.434 40.205C54.2332 40.205 53.0313 39.8985 51.1818 39.1305L50.4964 38.8102L49.7146 43.3977C51.0544 43.9556 53.4687 44.4343 55.9622 44.4756C61.8205 44.4756 65.6503 41.717 65.695 37.4773C65.7433 35.1388 64.2279 33.372 61.0387 31.9118C59.0997 30.9646 57.8977 30.3309 57.8977 29.37C57.8977 28.5194 58.9275 27.6101 61.08 27.6101C62.5126 27.5755 63.9363 27.8443 65.2577 28.3988L65.7743 28.6296L66.5561 24.1971L66.4217 24.2281ZM80.7214 23.7356H76.4164C75.0766 23.7356 74.0675 24.1041 73.482 25.4335L65.2025 44.1898H71.0609L72.2319 41.1143L79.3817 41.1211C79.5505 41.841 80.0671 44.1898 80.0671 44.1898H85.2331L80.7214 23.7356ZM44.0698 23.5634H49.6527L46.1604 44.0279H40.5845L44.0698 23.5565V23.5634ZM29.8976 34.8426L30.4762 37.684L35.9316 23.7356H41.845L33.0592 44.1622H27.1596L22.3379 26.8662C22.2598 26.581 22.0764 26.3361 21.8247 26.1809C20.0869 25.2831 18.2455 24.6018 16.3418 24.1523L16.4176 23.7218H25.4031C26.6223 23.77 27.6038 24.1523 27.931 25.4542L29.8941 34.853L29.8976 34.8426ZM73.8333 36.9297L76.0582 31.2057C76.0306 31.2677 76.5163 30.0244 76.7987 29.2564L77.181 31.0232L78.4725 36.9263H73.8299L73.8333 36.9297Z" fill="white"/>
</svg>
