<svg width="171" height="66" viewBox="0 0 171 66" fill="none" xmlns="http://www.w3.org/2000/svg">
<rect width="171" height="66" fill="white"/>
<path d="M66.2124 21.7715H58.3372C57.7983 21.7715 57.34 22.163 57.2559 22.695L54.0708 42.8891C54.0075 43.2876 54.3161 43.6468 54.7203 43.6468H58.48C59.0189 43.6468 59.4772 43.2553 59.5612 42.7222L60.4203 37.2755C60.5032 36.7424 60.9626 36.3508 61.5004 36.3508H63.9934C69.181 36.3508 72.1749 33.8405 72.9568 28.866C73.3092 26.6896 72.9718 24.9796 71.9527 23.7821C70.8334 22.467 68.8482 21.7715 66.2124 21.7715ZM67.1209 29.147C66.6903 31.9728 64.5312 31.9728 62.4435 31.9728H61.2551L62.0888 26.6954C62.1383 26.3764 62.4147 26.1415 62.7371 26.1415H63.2818C64.7039 26.1415 66.0454 26.1415 66.7386 26.9522C67.152 27.4358 67.2787 28.1544 67.1209 29.147Z" fill="#253B80"/>
<path d="M89.7529 29.0559H85.9817C85.6604 29.0559 85.3829 29.2908 85.3334 29.6098L85.1664 30.6645L84.9027 30.2822C84.0863 29.0973 82.2657 28.7012 80.4487 28.7012C76.2813 28.7012 72.722 31.8575 72.0288 36.2851C71.6684 38.4937 72.1808 40.6056 73.4336 42.0784C74.5828 43.4325 76.2272 43.9968 78.1836 43.9968C81.5414 43.9968 83.4034 41.8377 83.4034 41.8377L83.2353 42.8856C83.172 43.2863 83.4806 43.6456 83.8825 43.6456H87.2794C87.8195 43.6456 88.2755 43.2541 88.3607 42.7209L90.3989 29.8136C90.4634 29.4163 90.1559 29.0559 89.7529 29.0559ZM84.4962 36.3956C84.1323 38.5501 82.4223 39.9964 80.2414 39.9964C79.1463 39.9964 78.2711 39.6452 77.7092 38.9796C77.1519 38.3187 76.94 37.3779 77.1173 36.33C77.457 34.1939 79.1958 32.7004 81.3434 32.7004C82.4143 32.7004 83.2848 33.0562 83.8583 33.7276C84.4329 34.4058 84.6609 35.3524 84.4962 36.3956Z" fill="#253B80"/>
<path d="M109.838 29.0566H106.048C105.687 29.0566 105.347 29.2363 105.142 29.5368L99.9155 37.2358L97.6999 29.8374C97.5606 29.3744 97.1334 29.0566 96.6498 29.0566H92.9258C92.4732 29.0566 92.1589 29.4988 92.3028 29.9249L96.477 42.1747L92.5527 47.7146C92.2441 48.1511 92.555 48.751 93.0881 48.751H96.8732C97.2324 48.751 97.5687 48.576 97.7725 48.2812L110.377 30.0872C110.679 29.652 110.369 29.0566 109.838 29.0566Z" fill="#253B80"/>
<path d="M122.385 21.7715H114.508C113.971 21.7715 113.512 22.163 113.428 22.695L110.243 42.8891C110.179 43.2876 110.488 43.6468 110.89 43.6468H114.932C115.307 43.6468 115.629 43.3728 115.688 42.9997L116.591 37.2755C116.674 36.7424 117.134 36.3508 117.672 36.3508H120.163C125.352 36.3508 128.345 33.8405 129.128 28.866C129.481 26.6896 129.142 24.9796 128.123 23.7821C127.005 22.467 125.021 21.7715 122.385 21.7715ZM123.293 29.147C122.864 31.9728 120.705 31.9728 118.616 31.9728H117.429L118.263 26.6954C118.313 26.3764 118.587 26.1415 118.911 26.1415H119.455C120.876 26.1415 122.219 26.1415 122.912 26.9522C123.325 27.4358 123.451 28.1544 123.293 29.147Z" fill="#179BD7"/>
<path d="M145.924 29.0559H142.155C141.832 29.0559 141.556 29.2908 141.508 29.6098L141.341 30.6645L141.076 30.2822C140.26 29.0973 138.44 28.7012 136.623 28.7012C132.456 28.7012 128.898 31.8575 128.205 36.2851C127.845 38.4937 128.355 40.6056 129.608 42.0784C130.76 43.4325 132.402 43.9968 134.358 43.9968C137.716 43.9968 139.578 41.8377 139.578 41.8377L139.41 42.8856C139.347 43.2863 139.655 43.6456 140.059 43.6456H143.455C143.993 43.6456 144.451 43.2541 144.535 42.7209L146.575 29.8136C146.637 29.4163 146.328 29.0559 145.924 29.0559ZM140.667 36.3956C140.306 38.5501 138.594 39.9964 136.413 39.9964C135.32 39.9964 134.442 39.6452 133.88 38.9796C133.323 38.3187 133.113 37.3779 133.288 36.33C133.63 34.1939 135.367 32.7004 137.515 32.7004C138.585 32.7004 139.456 33.0562 140.029 33.7276C140.606 34.4058 140.834 35.3524 140.667 36.3956Z" fill="#179BD7"/>
<path d="M150.369 22.3245L147.137 42.8883C147.073 43.2867 147.382 43.646 147.784 43.646H151.033C151.573 43.646 152.032 43.2545 152.115 42.7213L155.302 22.5283C155.365 22.1299 155.057 21.7695 154.655 21.7695H151.016C150.695 21.7706 150.418 22.0055 150.369 22.3245Z" fill="#179BD7"/>
<path d="M21.3678 47.5718L21.97 43.7465L20.6285 43.7154H14.2227L18.6744 15.4883C18.6882 15.4031 18.7331 15.3236 18.7988 15.2672C18.8644 15.2108 18.9485 15.1797 19.036 15.1797H29.8372C33.423 15.1797 35.8976 15.9259 37.1896 17.3987C37.7953 18.0896 38.1811 18.8116 38.3676 19.6061C38.5634 20.4398 38.5669 21.4359 38.3757 22.6507L38.3619 22.7394V23.5178L38.9676 23.861C39.4777 24.1316 39.883 24.4413 40.1939 24.796C40.7121 25.3867 41.0472 26.1375 41.1889 27.0276C41.3351 27.9431 41.2867 29.0324 41.0472 30.2657C40.7709 31.6844 40.3241 32.9199 39.7207 33.931C39.1656 34.8625 38.4586 35.6352 37.6192 36.234C36.8177 36.8029 35.8654 37.2347 34.7887 37.511C33.7455 37.7828 32.556 37.9198 31.2513 37.9198H30.4107C29.8096 37.9198 29.2258 38.1363 28.7675 38.5244C28.308 38.9205 28.004 39.4617 27.9107 40.0536L27.8474 40.3979L26.7834 47.14L26.735 47.3876C26.7224 47.4659 26.7005 47.505 26.6683 47.5315C26.6395 47.5557 26.598 47.5718 26.5577 47.5718H21.3678Z" fill="#253B80"/>
<path d="M39.5411 22.8281C39.5089 23.0342 39.472 23.245 39.4306 23.4614C38.0062 30.7747 33.133 33.3011 26.909 33.3011H23.74C22.9789 33.3011 22.3375 33.8539 22.2189 34.6047L20.5964 44.8946L20.1369 47.8114C20.0598 48.3042 20.4398 48.7487 20.9372 48.7487H26.5578C27.2234 48.7487 27.7888 48.2651 27.8936 47.6087L27.9488 47.3231L29.0071 40.6075L29.075 40.239C29.1787 39.5804 29.7452 39.0967 30.4108 39.0967H31.2514C36.6969 39.0967 40.9598 36.8858 42.2057 30.488C42.7262 27.8153 42.4568 25.5837 41.0796 24.0142C40.6627 23.5409 40.1457 23.1482 39.5411 22.8281Z" fill="#179BD7"/>
<path d="M38.049 22.2339C37.8313 22.1706 37.6068 22.113 37.3765 22.0612C37.145 22.0105 36.9078 21.9656 36.6637 21.9265C35.8093 21.7883 34.8731 21.7227 33.8701 21.7227H25.4042C25.1957 21.7227 24.9977 21.7699 24.8203 21.8551C24.43 22.0428 24.1398 22.4124 24.0696 22.865L22.2686 34.2719L22.2168 34.6047C22.3354 33.8539 22.9768 33.3012 23.7379 33.3012H26.9069C33.1308 33.3012 38.004 30.7736 39.4285 23.4615C39.4711 23.245 39.5068 23.0342 39.539 22.8281C39.1786 22.637 38.7882 22.4735 38.3679 22.3341C38.2643 22.2996 38.1572 22.2662 38.049 22.2339Z" fill="#222D65"/>
<path d="M24.0707 22.8655C24.1409 22.413 24.4311 22.0433 24.8214 21.8568C24.9999 21.7716 25.1968 21.7244 25.4053 21.7244H33.8712C34.8742 21.7244 35.8103 21.79 36.6648 21.9282C36.9089 21.9673 37.1461 22.0122 37.3776 22.0629C37.6079 22.1147 37.8324 22.1723 38.05 22.2356C38.1583 22.2679 38.2654 22.3013 38.3702 22.3347C38.7905 22.474 39.1808 22.6387 39.5413 22.8287C39.965 20.1261 39.5378 18.2859 38.0765 16.6197C36.4656 14.7853 33.558 14 29.8374 14H19.0362C18.2762 14 17.6279 14.5527 17.5105 15.3047L13.0115 43.8219C12.9228 44.3862 13.3581 44.8952 13.927 44.8952H20.5954L22.2697 34.2724L24.0707 22.8655Z" fill="#253B80"/>
</svg>
