<svg width="150" height="150" viewBox="0 0 150 150" fill="none" xmlns="http://www.w3.org/2000/svg">
<rect width="150" height="150" rx="42" fill="url(#paint0_linear_322_272)"/>
<path fill-rule="evenodd" clip-rule="evenodd" d="M75.9786 122.957C102.476 122.957 123.957 101.476 123.957 74.9786C123.957 48.4807 102.476 27 75.9786 27C49.4807 27 28 48.4807 28 74.9786C28 83.5836 30.2653 91.6594 34.232 98.6423L28 122.957L53.0683 117.144C59.8763 120.851 67.6814 122.957 75.9786 122.957ZM75.9786 115.576C98.4 115.576 116.576 97.4 116.576 74.9786C116.576 52.5573 98.4 34.3813 75.9786 34.3813C53.5573 34.3813 35.3813 52.5573 35.3813 74.9786C35.3813 83.6356 38.0909 91.6597 42.7083 98.2489L39.072 111.885L52.9486 108.416C59.4925 112.932 67.4268 115.576 75.9786 115.576Z" fill="white"/>
<path d="M63.9845 52.7022C62.844 50.411 61.0938 50.6138 59.3262 50.6138C56.1668 50.6138 51.2402 54.3983 51.2402 61.4415C51.2402 67.2137 53.7838 73.5325 62.3546 82.9842C70.6262 92.1063 81.4947 96.825 90.5174 96.6647C99.5401 96.5039 101.397 88.7396 101.397 86.1172C101.397 84.9551 100.675 84.3753 100.179 84.2176C97.1038 82.7423 91.4328 79.9928 90.1425 79.476C88.8522 78.9595 88.1784 79.6583 87.7597 80.0384C86.5897 81.1535 84.2702 84.4397 83.4758 85.1789C82.6818 85.9181 81.4978 85.5439 81.0049 85.2646C79.1917 84.537 74.2756 82.3502 70.3571 78.5514C65.5106 73.8536 65.2262 72.2374 64.3132 70.7984C63.5829 69.6476 64.1189 68.9413 64.3862 68.6325C65.4304 67.4279 66.8722 65.5677 67.5189 64.6434C68.1652 63.7191 67.6522 62.3154 67.3441 61.4415C66.0195 57.6821 64.8972 54.5353 63.9845 52.7022Z" fill="white"/>
<defs>
<linearGradient id="paint0_linear_322_272" x1="75" y1="0" x2="75" y2="150" gradientUnits="userSpaceOnUse">
<stop stop-color="#DDEBCC"/>
<stop offset="0.247526" stop-color="#84CD7A"/>
<stop offset="0.495052" stop-color="#0BBD29"/>
<stop offset="0.75" stop-color="#0F954C"/>
<stop offset="1" stop-color="#0E4434"/>
</linearGradient>
</defs>
</svg>
