<svg width="150" height="150" viewBox="0 0 150 150" fill="none" xmlns="http://www.w3.org/2000/svg">
<rect width="150" height="150" rx="42" fill="url(#paint0_linear_322_270)"/>
<path d="M109.451 47.8252C109.451 51.8429 106.194 55.1002 102.176 55.1002C98.1586 55.1002 94.9014 51.8429 94.9014 47.8252C94.9014 43.8073 98.1586 40.5502 102.176 40.5502C106.194 40.5502 109.451 43.8073 109.451 47.8252Z" fill="white"/>
<path fill-rule="evenodd" clip-rule="evenodd" d="M75.498 98.75C88.8908 98.75 99.748 87.8928 99.748 74.5C99.748 61.1072 88.8908 50.25 75.498 50.25C62.1053 50.25 51.248 61.1072 51.248 74.5C51.248 87.8928 62.1053 98.75 75.498 98.75ZM75.498 89.05C83.534 89.05 90.048 82.536 90.048 74.5C90.048 66.464 83.534 59.95 75.498 59.95C67.4621 59.95 60.948 66.464 60.948 74.5C60.948 82.536 67.4621 89.05 75.498 89.05Z" fill="white"/>
<path fill-rule="evenodd" clip-rule="evenodd" d="M27 72.56C27 56.2625 27 48.1136 30.1717 41.8889C32.9616 36.4133 37.4133 31.9616 42.8889 29.1717C49.1136 26 57.2625 26 73.56 26H77.44C93.7374 26 101.886 26 108.111 29.1717C113.587 31.9616 118.038 36.4133 120.828 41.8889C124 48.1136 124 56.2625 124 72.56V76.44C124 92.7374 124 100.886 120.828 107.111C118.038 112.587 113.587 117.038 108.111 119.828C101.886 123 93.7374 123 77.44 123H73.56C57.2625 123 49.1136 123 42.8889 119.828C37.4133 117.038 32.9616 112.587 30.1717 107.111C27 100.886 27 92.7374 27 76.44V72.56ZM73.56 35.7H77.44C85.749 35.7 91.3968 35.7076 95.7628 36.0642C100.016 36.4117 102.191 37.0415 103.708 37.8145C107.358 39.6744 110.325 42.6422 112.185 46.2924C112.958 47.8095 113.589 49.9842 113.936 54.2372C114.292 58.6032 114.3 64.251 114.3 72.56V76.44C114.3 84.749 114.292 90.3968 113.936 94.7628C113.589 99.0158 112.958 101.191 112.185 102.708C110.325 106.358 107.358 109.325 103.708 111.185C102.191 111.958 100.016 112.589 95.7628 112.936C91.3968 113.292 85.749 113.3 77.44 113.3H73.56C65.251 113.3 59.6032 113.292 55.2372 112.936C50.9842 112.589 48.8095 111.958 47.2924 111.185C43.6422 109.325 40.6744 106.358 38.8145 102.708C38.0415 101.191 37.4117 99.0158 37.0642 94.7628C36.7076 90.3968 36.7 84.749 36.7 76.44V72.56C36.7 64.251 36.7076 58.6032 37.0642 54.2372C37.4117 49.9842 38.0415 47.8095 38.8145 46.2924C40.6744 42.6422 43.6422 39.6744 47.2924 37.8145C48.8095 37.0415 50.9842 36.4117 55.2372 36.0642C59.6032 35.7076 65.251 35.7 73.56 35.7Z" fill="white"/>
<defs>
<linearGradient id="paint0_linear_322_270" x1="0" y1="0" x2="150" y2="134.5" gradientUnits="userSpaceOnUse">
<stop stop-color="#DDEBCC"/>
<stop offset="0.247526" stop-color="#84CD7A"/>
<stop offset="0.495052" stop-color="#0BBD29"/>
<stop offset="0.75" stop-color="#0F954C"/>
<stop offset="1" stop-color="#0E4434"/>
</linearGradient>
</defs>
</svg>
