<svg width="150" height="150" viewBox="0 0 150 150" fill="none" xmlns="http://www.w3.org/2000/svg">
<rect width="150" height="150" rx="42" fill="url(#paint0_linear_324_194)"/>
<path fill-rule="evenodd" clip-rule="evenodd" d="M39.5597 42.2205C32.5253 42.569 26.8748 48.077 26.4183 55.1052C25.9808 61.8386 25.5498 70.1242 25.5498 76.625C25.5498 83.1259 25.9808 91.4115 26.4183 98.145C26.8748 105.173 32.5253 110.681 39.5597 111.03C49.746 111.534 64.3051 112.143 75.2748 112.143C86.2445 112.143 100.804 111.534 110.99 111.03C118.024 110.681 123.675 105.173 124.131 98.145C124.569 91.4115 125 83.1259 125 76.625C125 70.1242 124.569 61.8386 124.131 55.1052C123.675 48.077 118.024 42.569 110.99 42.2205C100.804 41.7158 86.2445 41.1072 75.2748 41.1072C64.3051 41.1072 49.746 41.7158 39.5597 42.2205ZM93.0334 76.625L64.6191 90.8321V62.4178L93.0334 76.625Z" fill="white"/>
<defs>
<linearGradient id="paint0_linear_324_194" x1="109" y1="-12" x2="12.5" y2="150" gradientUnits="userSpaceOnUse">
<stop stop-color="#DDEBCC"/>
<stop offset="0.247526" stop-color="#84CD7A"/>
<stop offset="0.495052" stop-color="#0BBD29"/>
<stop offset="0.75" stop-color="#0F954C"/>
<stop offset="1" stop-color="#0E4434"/>
</linearGradient>
</defs>
</svg>
