<svg width="30" height="29" viewBox="0 0 30 29" fill="none" xmlns="http://www.w3.org/2000/svg">
<path d="M21.3116 18.0135H19.9895L19.521 17.5795C21.161 15.7473 22.1484 13.3686 22.1484 10.7809C22.1484 5.01101 17.2784 0.333984 11.2705 0.333984C5.26253 0.333984 0.392578 5.01101 0.392578 10.7809C0.392578 16.5509 5.26253 21.2279 11.2705 21.2279C13.9649 21.2279 16.4417 20.2796 18.3495 18.7046L18.8013 19.1546V20.4243L27.169 28.4443L29.6625 26.0496L21.3116 18.0135ZM11.2705 18.0135C7.10341 18.0135 3.73963 14.7829 3.73963 10.7809C3.73963 6.77895 7.10341 3.54843 11.2705 3.54843C15.4376 3.54843 18.8013 6.77895 18.8013 10.7809C18.8013 14.7829 15.4376 18.0135 11.2705 18.0135Z" fill="#252525"/>
</svg>
