<svg width="113" height="36" viewBox="0 0 113 36" fill="none" xmlns="http://www.w3.org/2000/svg">
<path d="M39.4972 14.125C38.7423 14.125 38.0629 13.9955 37.4589 13.7367C36.8549 13.4671 36.3804 13.0896 36.0353 12.6043C35.6902 12.119 35.5176 11.5528 35.5176 10.9057H37.4913C37.5344 11.391 37.7231 11.79 38.0575 12.1028C38.4026 12.4156 38.8825 12.5719 39.4972 12.5719C40.1336 12.5719 40.6297 12.4209 40.9856 12.119C41.3415 11.8062 41.5194 11.4072 41.5194 10.9218C41.5194 10.5444 41.4062 10.237 41.1797 9.99974C40.964 9.76247 40.689 9.57913 40.3546 9.44971C40.0311 9.32029 39.5781 9.18009 38.9957 9.0291C38.2624 8.83497 37.6638 8.64085 37.2001 8.44672C36.7471 8.24181 36.3588 7.92904 36.0353 7.50843C35.7118 7.08782 35.55 6.52701 35.55 5.82599C35.55 5.1789 35.7118 4.61269 36.0353 4.12737C36.3588 3.64205 36.8118 3.26998 37.3942 3.01114C37.9766 2.7523 38.6506 2.62288 39.4164 2.62288C40.5056 2.62288 41.3954 2.8979 42.0856 3.44793C42.7866 3.98717 43.1749 4.73133 43.2504 5.6804H41.212C41.1797 5.27057 40.9856 4.92006 40.6297 4.62887C40.2738 4.33768 39.8046 4.19208 39.2222 4.19208C38.6938 4.19208 38.2624 4.32689 37.928 4.59652C37.5937 4.86614 37.4265 5.25439 37.4265 5.76128C37.4265 6.1064 37.529 6.3922 37.7339 6.61868C37.9496 6.83438 38.2192 7.00694 38.5428 7.13636C38.8663 7.26577 39.3085 7.40598 39.8693 7.55697C40.6135 7.76188 41.2174 7.96679 41.6812 8.1717C42.1557 8.37662 42.5548 8.69477 42.8783 9.12617C43.2126 9.54678 43.3798 10.113 43.3798 10.8248C43.3798 11.3964 43.2234 11.9356 42.9107 12.4425C42.6087 12.9494 42.1611 13.3592 41.5679 13.672C40.9856 13.974 40.2953 14.125 39.4972 14.125ZM47.4001 2.76848V14.0117H45.5559V2.76848H47.4001ZM57.085 2.76848V4.27297H54.0922V14.0117H52.248V4.27297H49.239V2.76848H57.085ZM60.797 4.25679V7.55697H64.6795V9.06146H60.797V12.5072H65.1648V14.0117H58.9528V2.7523H65.1648V4.25679H60.797ZM70.8622 4.77447V2.20227H75.3433V14.0117H72.4637V4.77447H70.8622ZM77.2357 7.94522C77.2357 6.09022 77.5916 4.62887 78.3034 3.56117C79.0259 2.49346 80.1853 1.95961 81.7815 1.95961C83.3776 1.95961 84.5316 2.49346 85.2434 3.56117C85.966 4.62887 86.3273 6.09022 86.3273 7.94522C86.3273 9.82179 85.966 11.2939 85.2434 12.3616C84.5316 13.4293 83.3776 13.9632 81.7815 13.9632C80.1853 13.9632 79.0259 13.4293 78.3034 12.3616C77.5916 11.2939 77.2357 9.82179 77.2357 7.94522ZM83.6095 7.94522C83.6095 6.85595 83.4909 6.02012 83.2536 5.43774C83.0164 4.84457 82.5256 4.54798 81.7815 4.54798C81.0373 4.54798 80.5466 4.84457 80.3093 5.43774C80.0721 6.02012 79.9534 6.85595 79.9534 7.94522C79.9534 8.67859 79.9966 9.28794 80.0829 9.77326C80.1691 10.2478 80.3417 10.6361 80.6005 10.938C80.8702 11.2292 81.2638 11.3748 81.7815 11.3748C82.2992 11.3748 82.6874 11.2292 82.9463 10.938C83.2159 10.6361 83.3938 10.2478 83.4801 9.77326C83.5664 9.28794 83.6095 8.67859 83.6095 7.94522ZM87.7888 7.94522C87.7888 6.09022 88.1447 4.62887 88.8565 3.56117C89.5791 2.49346 90.7385 1.95961 92.3347 1.95961C93.9308 1.95961 95.0848 2.49346 95.7966 3.56117C96.5192 4.62887 96.8805 6.09022 96.8805 7.94522C96.8805 9.82179 96.5192 11.2939 95.7966 12.3616C95.0848 13.4293 93.9308 13.9632 92.3347 13.9632C90.7385 13.9632 89.5791 13.4293 88.8565 12.3616C88.1447 11.2939 87.7888 9.82179 87.7888 7.94522ZM94.1627 7.94522C94.1627 6.85595 94.0441 6.02012 93.8068 5.43774C93.5695 4.84457 93.0788 4.54798 92.3347 4.54798C91.5905 4.54798 91.0998 4.84457 90.8625 5.43774C90.6253 6.02012 90.5066 6.85595 90.5066 7.94522C90.5066 8.67859 90.5498 9.28794 90.636 9.77326C90.7223 10.2478 90.8949 10.6361 91.1537 10.938C91.4233 11.2292 91.817 11.3748 92.3347 11.3748C92.8523 11.3748 93.2406 11.2292 93.4994 10.938C93.769 10.6361 93.947 10.2478 94.0333 9.77326C94.1196 9.28794 94.1627 8.67859 94.1627 7.94522ZM98.1155 5.1789C98.1155 4.30532 98.3636 3.63127 98.8597 3.15673C99.3666 2.6822 100.019 2.44493 100.817 2.44493C101.615 2.44493 102.262 2.6822 102.758 3.15673C103.255 3.63127 103.503 4.30532 103.503 5.1789C103.503 6.05247 103.255 6.72653 102.758 7.20106C102.262 7.6756 101.615 7.91287 100.817 7.91287C100.019 7.91287 99.3666 7.6756 98.8597 7.20106C98.3636 6.72653 98.1155 6.05247 98.1155 5.1789ZM109.1 2.62288L102.872 14.0117H100.202L106.431 2.62288H109.1ZM100.801 4.06266C100.283 4.06266 100.024 4.43474 100.024 5.1789C100.024 5.91227 100.283 6.27896 100.801 6.27896C101.049 6.27896 101.243 6.18729 101.383 6.00394C101.524 5.8206 101.594 5.54559 101.594 5.1789C101.594 4.43474 101.329 4.06266 100.801 4.06266ZM105.816 11.4557C105.816 10.5821 106.064 9.90807 106.56 9.43354C107.056 8.959 107.703 8.72173 108.501 8.72173C109.299 8.72173 109.947 8.959 110.443 9.43354C110.939 9.90807 111.187 10.5821 111.187 11.4557C111.187 12.3293 110.939 13.0033 110.443 13.4779C109.947 13.9524 109.299 14.1897 108.501 14.1897C107.703 14.1897 107.056 13.9524 106.56 13.4779C106.064 13.0033 105.816 12.3293 105.816 11.4557ZM108.485 10.3395C108.237 10.3395 108.043 10.4311 107.903 10.6145C107.773 10.7978 107.709 11.0782 107.709 11.4557C107.709 12.1891 107.968 12.5558 108.485 12.5558C108.733 12.5558 108.927 12.4641 109.068 12.2807C109.208 12.0974 109.278 11.8224 109.278 11.4557C109.278 11.089 109.208 10.814 109.068 10.6307C108.927 10.4365 108.733 10.3395 108.485 10.3395Z" fill="white"/>
<path d="M40.4584 33.2752C39.5613 33.2752 38.754 33.1214 38.0363 32.8138C37.3187 32.4935 36.7548 32.0449 36.3448 31.4683C35.9347 30.8916 35.7296 30.2188 35.7296 29.4499H38.0748C38.126 30.0266 38.3503 30.5007 38.7476 30.8724C39.1577 31.244 39.7279 31.4298 40.4584 31.4298C41.2145 31.4298 41.8039 31.2504 42.2268 30.8916C42.6497 30.52 42.8612 30.0458 42.8612 29.4691C42.8612 29.0206 42.7266 28.6554 42.4575 28.3735C42.2012 28.0915 41.8744 27.8737 41.4772 27.7199C41.0927 27.5661 40.5545 27.3995 39.8625 27.2201C38.9911 26.9894 38.2798 26.7588 37.7288 26.5281C37.1906 26.2846 36.7292 25.913 36.3448 25.4132C35.9603 24.9134 35.7681 24.247 35.7681 23.4141C35.7681 22.6452 35.9603 21.9724 36.3448 21.3957C36.7292 20.819 37.2674 20.3769 37.9595 20.0693C38.6515 19.7618 39.4524 19.608 40.3623 19.608C41.6566 19.608 42.7138 19.9348 43.534 20.5884C44.3669 21.2291 44.8283 22.1133 44.918 23.2411H42.496C42.4575 22.7541 42.2268 22.3376 41.8039 21.9916C41.3811 21.6456 40.8236 21.4726 40.1316 21.4726C39.5037 21.4726 38.9911 21.6328 38.5938 21.9531C38.1965 22.2735 37.9979 22.7349 37.9979 23.3372C37.9979 23.7472 38.1196 24.0868 38.3631 24.356C38.6194 24.6123 38.9398 24.8173 39.3242 24.9711C39.7087 25.1249 40.2341 25.2915 40.9005 25.4709C41.7847 25.7143 42.5024 25.9578 43.0534 26.2013C43.6173 26.4448 44.0914 26.8228 44.4759 27.3354C44.8731 27.8352 45.0718 28.508 45.0718 29.3538C45.0718 30.033 44.8859 30.6737 44.5143 31.276C44.1555 31.8783 43.6237 32.3653 42.9188 32.737C42.2268 33.0958 41.4067 33.2752 40.4584 33.2752ZM49.8488 21.5495V25.4709H54.4622V27.2585H49.8488V31.3529H55.0389V33.1406H47.6575V19.7618H55.0389V21.5495H49.8488ZM67.4069 23.6255C67.0609 22.9591 66.5804 22.4593 65.9652 22.1262C65.3501 21.7801 64.6389 21.6071 63.8315 21.6071C62.9473 21.6071 62.1592 21.8058 61.4672 22.203C60.7752 22.6003 60.2305 23.1642 59.8333 23.8946C59.4488 24.6251 59.2566 25.4709 59.2566 26.432C59.2566 27.3931 59.4488 28.2453 59.8333 28.9886C60.2305 29.719 60.7752 30.2829 61.4672 30.6801C62.1592 31.0774 62.9473 31.276 63.8315 31.276C65.0233 31.276 65.9909 30.9429 66.7341 30.2765C67.4774 29.6101 67.9323 28.7066 68.0989 27.5661H63.0819V25.8169H70.4441V27.5277C70.3031 28.5657 69.9315 29.5204 69.3292 30.3918C68.7397 31.2632 67.9644 31.9616 67.0032 32.4871C66.0549 32.9997 64.9977 33.256 63.8315 33.256C62.5757 33.256 61.4287 32.9676 60.3907 32.3909C59.3527 31.8015 58.5261 30.9877 57.911 29.9497C57.3087 28.9117 57.0076 27.7391 57.0076 26.432C57.0076 25.1249 57.3087 23.9523 57.911 22.9143C58.5261 21.8763 59.3527 21.0689 60.3907 20.4922C61.4415 19.9028 62.5885 19.608 63.8315 19.608C65.254 19.608 66.5163 19.9604 67.6184 20.6652C68.7333 21.3573 69.5406 22.344 70.0404 23.6255H67.4069ZM74.7775 19.781V28.2966C74.7775 29.3089 75.0402 30.0714 75.5657 30.584C76.1039 31.0966 76.8472 31.3529 77.7955 31.3529C78.7566 31.3529 79.4999 31.0966 80.0253 30.584C80.5635 30.0714 80.8326 29.3089 80.8326 28.2966V19.781H83.024V28.2581C83.024 29.3474 82.7869 30.2701 82.3127 31.0262C81.8386 31.7822 81.2042 32.3461 80.4097 32.7177C79.6152 33.0894 78.7374 33.2752 77.7762 33.2752C76.8151 33.2752 75.9373 33.0894 75.1428 32.7177C74.361 32.3461 73.7395 31.7822 73.2782 31.0262C72.8168 30.2701 72.5862 29.3474 72.5862 28.2581V19.781H74.7775ZM92.8165 33.1406L89.7409 27.7968H88.0685V33.1406H85.8772V19.781H90.4906C91.5158 19.781 92.3808 19.9604 93.0856 20.3192C93.8032 20.6781 94.335 21.1586 94.6811 21.7609C95.0399 22.3632 95.2193 23.036 95.2193 23.7793C95.2193 24.6507 94.963 25.4452 94.4504 26.1629C93.9506 26.8677 93.1753 27.3483 92.1245 27.6046L95.4307 33.1406H92.8165ZM88.0685 26.0475H90.4906C91.3107 26.0475 91.9258 25.8425 92.3359 25.4324C92.7588 25.0223 92.9703 24.4713 92.9703 23.7793C92.9703 23.0873 92.7652 22.549 92.3551 22.1646C91.9451 21.7673 91.3235 21.5687 90.4906 21.5687H88.0685V26.0475ZM104.116 33.2752C102.873 33.2752 101.726 32.9868 100.675 32.4102C99.6373 31.8207 98.8107 31.0069 98.1956 29.9689C97.5933 28.9181 97.2922 27.7391 97.2922 26.432C97.2922 25.1249 97.5933 23.9523 98.1956 22.9143C98.8107 21.8763 99.6373 21.0689 100.675 20.4922C101.726 19.9028 102.873 19.608 104.116 19.608C105.372 19.608 106.519 19.9028 107.557 20.4922C108.608 21.0689 109.434 21.8763 110.037 22.9143C110.639 23.9523 110.94 25.1249 110.94 26.432C110.94 27.7391 110.639 28.9181 110.037 29.9689C109.434 31.0069 108.608 31.8207 107.557 32.4102C106.519 32.9868 105.372 33.2752 104.116 33.2752ZM104.116 31.3722C105 31.3722 105.788 31.1735 106.48 30.7763C107.173 30.3662 107.711 29.7895 108.095 29.0462C108.492 28.2902 108.691 27.4187 108.691 26.432C108.691 25.4452 108.492 24.5802 108.095 23.837C107.711 23.0937 107.173 22.5234 106.48 22.1262C105.788 21.7289 105 21.5303 104.116 21.5303C103.232 21.5303 102.444 21.7289 101.752 22.1262C101.06 22.5234 100.515 23.0937 100.118 23.837C99.7334 24.5802 99.5412 25.4452 99.5412 26.432C99.5412 27.4187 99.7334 28.2902 100.118 29.0462C100.515 29.7895 101.06 30.3662 101.752 30.7763C102.444 31.1735 103.232 31.3722 104.116 31.3722Z" fill="white"/>
<path fill-rule="evenodd" clip-rule="evenodd" d="M18.2274 13.8203V9.47469H18.2278C18.2278 6.85796 16.1069 4.73706 13.4905 4.73706C10.8738 4.73706 8.75288 6.85796 8.75288 9.47469V13.8203H18.2274ZM22.965 13.8203V9.47469C22.965 4.24161 18.7229 0 13.4903 0C8.25723 0 4.01562 4.2417 4.01562 9.47469V13.8203H2.00788C0.89896 13.8203 0 14.7193 0 15.8282V33.1305C0 34.2394 0.89896 35.1384 2.00788 35.1384H26.4171C27.5261 35.1384 28.425 34.2394 28.425 33.1305V15.8282C28.425 14.7193 27.5261 13.8203 26.4171 13.8203H22.965ZM15.3969 28.0327V25.3355C16.1017 24.9252 16.581 24.1701 16.581 23.2955C16.581 21.9875 15.5202 20.9267 14.2122 20.9267C12.9042 20.9267 11.8435 21.9875 11.8435 23.2955C11.8435 24.17 12.3232 24.9252 13.0281 25.3355V28.0327H15.3969Z" fill="white"/>
</svg>
