<svg width="122" height="111" viewBox="0 0 122 111" fill="none" xmlns="http://www.w3.org/2000/svg">
<path d="M73.7702 110.93C64.6102 110.931 55.6676 108.142 48.1312 102.935C32.465 92.057 18.871 78.463 7.99393 62.7944C1.99944 54.1254 -0.765451 43.6275 0.182559 33.1308C1.1292 22.6326 5.72705 12.7995 13.176 5.34254C16.2006 2.35209 20.2813 0.674988 24.5346 0.674988C28.7878 0.674988 32.8684 2.35216 35.8932 5.34254L45.9834 15.4327C48.9724 18.456 50.6495 22.5381 50.6495 26.7899C50.6495 31.0432 48.9723 35.1238 45.9834 38.1486C44.287 39.8107 43.9874 42.433 45.2665 44.4344C50.714 52.9693 57.9587 60.213 66.4936 65.6615C68.495 66.9406 71.1174 66.641 72.7795 64.9447C75.8028 61.9556 79.8848 60.2785 84.1367 60.2785C88.39 60.2785 92.472 61.9557 95.4953 64.9447L105.585 75.0349C108.576 78.0595 110.252 82.1402 110.252 86.3935C110.252 90.6467 108.576 94.7273 105.585 97.7521C97.1518 106.194 85.7056 110.936 73.7713 110.929L73.7702 110.93ZM24.5346 11.6844C23.1994 11.7296 21.9258 12.259 20.9505 13.1728C15.3266 18.7968 11.8588 26.2194 11.1542 34.1415C10.4483 42.0635 12.5496 49.9813 17.0913 56.511C27.1405 71.1363 39.7931 83.789 54.4198 93.8395C60.9495 98.3814 68.8673 100.483 76.7893 99.7766C84.7114 99.0707 92.1326 95.6028 97.758 89.9803C98.6718 89.0049 99.2012 87.7313 99.2464 86.3962C99.2505 85.0501 98.7142 83.7588 97.758 82.8122L87.7224 72.7767C86.758 71.8533 85.4748 71.3389 84.1384 71.3389C82.8032 71.3389 81.5201 71.8533 80.5558 72.7767C77.9758 75.3608 74.5928 76.9872 70.9633 77.3882C67.3341 77.789 63.6772 76.9409 60.5954 74.9833C50.6803 68.6414 42.2684 60.2115 35.9496 50.2814C33.992 47.2007 33.1424 43.5427 33.5433 39.9146C33.9454 36.2854 35.572 32.901 38.1548 30.3221C39.1042 29.3713 39.6377 28.0813 39.6377 26.738C39.6377 25.3947 39.1042 24.1047 38.1548 23.154L28.1206 13.1745C27.174 12.2183 25.8826 11.6807 24.5366 11.6861L24.5346 11.6844Z" fill="#0BBD29"/>
<path d="M93.7286 50.2773C92.2675 50.2773 90.864 49.6972 89.8297 48.663C88.7969 47.6288 88.2155 46.2266 88.2155 44.7642C88.2155 41.8394 87.054 39.0337 84.9856 36.9664C82.9172 34.8981 80.1128 33.7366 77.1879 33.7366C75.218 33.7366 73.3987 32.686 72.4135 30.9787C71.4286 29.2728 71.4286 27.1716 72.4135 25.4657C73.3985 23.7599 75.2179 22.7092 77.1879 22.7092C83.0374 22.7092 88.6477 25.0321 92.783 29.1688C96.9186 33.3044 99.2425 38.9144 99.2425 44.7639C99.2425 46.2263 98.6611 47.6285 97.6269 48.6627C96.5941 49.6969 95.1905 50.277 93.7281 50.277L93.7286 50.2773Z" fill="#0BBD29"/>
<path d="M115.785 50.2771C114.323 50.2771 112.921 49.6971 111.886 48.6629C110.854 47.6287 110.272 46.2265 110.272 44.764C110.272 35.9896 106.787 27.5751 100.583 21.3712C94.3787 15.1673 85.9643 11.6817 77.1898 11.6817C75.2199 11.6817 73.4006 10.6311 72.4155 8.92518C71.4305 7.21928 71.4305 5.11667 72.4155 3.41082C73.4004 1.70492 75.2199 0.654297 77.1898 0.654297C88.8889 0.654297 100.108 5.30155 108.38 13.5738C116.652 21.846 121.299 33.0649 121.299 44.7639C121.299 46.2263 120.718 47.6285 119.684 48.6628C118.65 49.697 117.248 50.2771 115.785 50.2771Z" fill="#0BBD29"/>
</svg>
